<?xml version="1.0" encoding="UTF-8" standalone="no"?>
<svg
   xmlns:dc="http://purl.org/dc/elements/1.1/"
   xmlns:cc="http://creativecommons.org/ns#"
   xmlns:rdf="http://www.w3.org/1999/02/22-rdf-syntax-ns#"
   xmlns:svg="http://www.w3.org/2000/svg"
   xmlns="http://www.w3.org/2000/svg"
   xmlns:sodipodi="http://sodipodi.sourceforge.net/DTD/sodipodi-0.dtd"
   xmlns:inkscape="http://www.inkscape.org/namespaces/inkscape"
   height="24"
   version="1.1"
   width="24"
   id="svg2"
   inkscape:version="0.91 r13725"
   sodipodi:docname="1443116944_bubbles.svg">
  <metadata
     id="metadata18">
    <rdf:RDF>
      <cc:Work
         rdf:about="">
        <dc:format>image/svg+xml</dc:format>
        <dc:type
           rdf:resource="http://purl.org/dc/dcmitype/StillImage" />
      </cc:Work>
    </rdf:RDF>
  </metadata>
  <defs
     id="defs16" />
  <sodipodi:namedview
     pagecolor="#ffffff"
     bordercolor="#666666"
     borderopacity="1"
     objecttolerance="10"
     gridtolerance="10"
     guidetolerance="10"
     inkscape:pageopacity="0"
     inkscape:pageshadow="2"
     inkscape:window-width="1545"
     inkscape:window-height="871"
     id="namedview14"
     showgrid="false"
     inkscape:zoom="9.8333333"
     inkscape:cx="14.885979"
     inkscape:cy="11.003013"
     inkscape:window-x="51"
     inkscape:window-y="0"
     inkscape:window-maximized="1"
     inkscape:current-layer="layer3">
    <inkscape:grid
       type="xygrid"
       id="grid3352" />
  </sodipodi:namedview>
  <g
     transform="translate(0 -1028.4)"
     id="g4">
    <path
       d="m22 1030.4c1.105 0 2 0.9 2 2v3 2 3c0 1.1-0.895 2-2 2v4l-4.875-4h-2.125-6c-1.1046 0-2-0.9-2-2v-3-2-3c0-1.1 0.8954-2 2-2h6 1 6z"
       fill="#c0392b"
       id="path6" />
    <path
       d="m22 1029.4c1.105 0 2 0.9 2 2v3 2 3c0 1.1-0.895 2-2 2v4l-4.875-4h-2.125-6c-1.1046 0-2-0.9-2-2v-3-2-3c0-1.1 0.8954-2 2-2h6 1 6z"
       fill="#e74c3c"
       id="path8" />
    <path
       d="m2 1036.4c-1.1046 0-2 0.9-2 2v3 2 3c0 1.1 0.89543 2 2 2v4l4.875-4h2.125 6c1.105 0 2-0.9 2-2v-3-2-3c0-1.1-0.895-2-2-2h-6-1-6z"
       fill="#f39c12"
       id="path10" />
    <path
       d="m2 1035.4c-1.1046 0-2 0.9-2 2v3 2 3c0 1.1 0.89543 2 2 2v4l4.875-4h2.125 6c1.105 0 2-0.9 2-2v-3-2-3c0-1.1-0.895-2-2-2h-6-1-6z"
       fill="#f1c40f"
       id="path12"
       style="fill:#f1c40f" />
  </g>
  <g
     inkscape:groupmode="layer"
     id="layer3"
     inkscape:label="white"
     style="display:inline">
    <path
       style="fill:#e3dedb"
       d="m 2.1337184,12.877507 c -0.098618,-0.09862 -0.105098,-0.122805 -0.105098,-0.392304 0,-0.276571 0.0041,-0.290653 0.1106223,-0.380289 l 0.1106224,-0.09308 6.25058,0 6.2505799,0 0.110622,0.09308 c 0.106527,0.08964 0.110623,0.103718 0.110623,0.380289 0,0.269499 -0.0065,0.293686 -0.105098,0.392304 l -0.105098,0.105098 -6.2616289,0 -6.2616287,0 -0.105098,-0.105098 z"
       id="path4227"
       inkscape:connector-curvature="0" />
    <path
       style="fill:#e3dedb"
       d="m 2.1337184,12.877507 c -0.098618,-0.09862 -0.105098,-0.122805 -0.105098,-0.392304 0,-0.276571 0.0041,-0.290653 0.1106223,-0.380289 l 0.1106224,-0.09308 6.25058,0 6.2505799,0 0.110622,0.09308 c 0.106527,0.08964 0.110623,0.103718 0.110623,0.380289 0,0.269499 -0.0065,0.293686 -0.105098,0.392304 l -0.105098,0.105098 -6.2616289,0 -6.2616287,0 -0.105098,-0.105098 z"
       id="path4229"
       inkscape:connector-curvature="0" />
    <path
       style="fill:#e3dedb"
       d="m 2.1337184,12.877507 c -0.098618,-0.09862 -0.105098,-0.122805 -0.105098,-0.392304 0,-0.276571 0.0041,-0.290653 0.1106223,-0.380289 l 0.1106224,-0.09308 6.25058,0 6.2505799,0 0.110622,0.09308 c 0.106527,0.08964 0.110623,0.103718 0.110623,0.380289 0,0.269499 -0.0065,0.293686 -0.105098,0.392304 l -0.105098,0.105098 -6.2616289,0 -6.2616287,0 -0.105098,-0.105098 z"
       id="path4231"
       inkscape:connector-curvature="0" />
    <circle
       style="display:inline;fill:#f2f2f2"
       id="circle4241"
       cx="19.972878"
       cy="7.0742221"
       r="1" />
    <circle
       r="1"
       cy="7.0382676"
       cx="10.984232"
       id="circle4244"
       style="display:inline;fill:#f2f2f2" />
    <circle
       style="display:inline;fill:#f2f2f2"
       id="circle4246"
       cx="15.586418"
       cy="6.9663587"
       r="1" />
  </g>
  <g
     inkscape:groupmode="layer"
     id="layer1"
     inkscape:label="yellow"
     style="display:inline">
    <rect
       style="fill:#f1c40f"
       id="rect4203"
       width="17"
       height="6"
       x="0"
       y="7"
       ry="2" />
    <circle
       style="fill:#f2f2f2"
       id="path4235"
       cx="8.539319"
       cy="13.006728"
       r="1" />
    <circle
       r="1"
       cy="13.006728"
       cx="4.0090413"
       id="circle4237"
       style="fill:#f2f2f2" />
    <circle
       r="1"
       cy="13.006728"
       cx="12.997687"
       id="circle4239"
       style="fill:#f2f2f2" />
  </g>
</svg>
